HIERARCHY
ROOT joint_Root
{
	OFFSET 0.0 0.0 0.0
	CHANNELS 6 Xposition Yposition Zposition Zrotation Xrotation Yrotation 
	JOINT Hips
	{
		OFFSET 4.5925 91.4895 -427.239
		CHANNELS 6 Xposition Yposition Zposition Zrotation Xrotation Yrotation 
		JOINT Spine
		{
			OFFSET 15.7357 0.0 0.0
			CHANNELS 6 Xposition Yposition Zposition Zrotation Xrotation Yrotation 
			JOINT Chest
			{
				OFFSET 8.98455 -0.406207 0.0
				CHANNELS 6 Xposition Yposition Zposition Zrotation Xrotation Yrotation 
				JOINT Neck
				{
					OFFSET 16.3773 0.0 0.0
					CHANNELS 6 Xposition Yposition Zposition Zrotation Xrotation Yrotation 
					JOINT Head
					{
						OFFSET 6.45672 0.0 0.0
						CHANNELS 6 Xposition Yposition Zposition Zrotation Xrotation Yrotation 
						End Site
						{
							OFFSET 0.0 0.0 0.0
						}
					}
				}
				JOINT Shoulder_L
				{
					OFFSET 12.9942 -0.242716 4.98039
					CHANNELS 6 Xposition Yposition Zposition Zrotation Xrotation Yrotation 
					JOINT UpperArm_L
					{
						OFFSET 5.34809 0.0 0.0
						CHANNELS 6 Xposition Yposition Zposition Zrotation Xrotation Yrotation 
						JOINT LowerArm_L
						{
							OFFSET 24.3286 1.87007e-05 0.0
							CHANNELS 6 Xposition Yposition Zposition Zrotation Xrotation Yrotation 
							JOINT Hand_L
							{
								OFFSET 22.2916 0.0 0.0
								CHANNELS 6 Xposition Yposition Zposition Zrotation Xrotation Yrotation 
								End Site
								{
									OFFSET 0.0 0.0 0.0
								}
							}
						}
					}
				}
				JOINT Shoulder_R
				{
					OFFSET 12.9945 -0.242716 -4.98039
					CHANNELS 6 Xposition Yposition Zposition Zrotation Xrotation Yrotation 
					JOINT UpperArm_R
					{
						OFFSET -5.34813 0.0 0.0
						CHANNELS 6 Xposition Yposition Zposition Zrotation Xrotation Yrotation 
						JOINT LowerArm_R
						{
							OFFSET -24.3289 0.000322201 0.0
							CHANNELS 6 Xposition Yposition Zposition Zrotation Xrotation Yrotation 
							JOINT Hand_R
							{
								OFFSET -22.2915 -0.000108084 0.0
								CHANNELS 6 Xposition Yposition Zposition Zrotation Xrotation Yrotation 
								End Site
								{
									OFFSET 0.0 0.0 0.0
								}
							}
						}
					}
				}
			}
		}
		JOINT UpperLeg_L
		{
			OFFSET -2.19248 -6.46944 0.0
			CHANNELS 6 Xposition Yposition Zposition Zrotation Xrotation Yrotation 
			JOINT LowerLeg_L
			{
				OFFSET 39.0811 0.0 -1.23785e-05
				CHANNELS 6 Xposition Yposition Zposition Zrotation Xrotation Yrotation 
				JOINT Foot_L
				{
					OFFSET 40.9854 0.0 -1.26872e-05
					CHANNELS 6 Xposition Yposition Zposition Zrotation Xrotation Yrotation 
					JOINT Toes_L
					{
						OFFSET 11.7543 0.0 0.0
						CHANNELS 6 Xposition Yposition Zposition Zrotation Xrotation Yrotation 
						End Site
						{
							OFFSET 0.0 0.0 0.0
						}
					}
				}
			}
		}
		JOINT UpperLeg_R
		{
			OFFSET -2.19251 6.46944 0.0
			CHANNELS 6 Xposition Yposition Zposition Zrotation Xrotation Yrotation 
			JOINT LowerLeg_R
			{
				OFFSET -39.0811 -0.00228153 -0.0401928
				CHANNELS 6 Xposition Yposition Zposition Zrotation Xrotation Yrotation 
				JOINT Foot_R
				{
					OFFSET -40.9854 0.0 0.0
					CHANNELS 6 Xposition Yposition Zposition Zrotation Xrotation Yrotation 
					JOINT Toes_R
					{
						OFFSET -11.7543 0.0 0.0
						CHANNELS 6 Xposition Yposition Zposition Zrotation Xrotation Yrotation 
						End Site
						{
							OFFSET 0.0 0.0 0.0
						}
					}
				}
			}
		}
	}
}
MOTION
Frames:	9
Frame Time:	0.0333333
0.000000 0.000000 0.000000 0.000000 0.000000 -0.000000 137.257000 88.266400 144.682000 97.959900 -7.525680 8.824960 15.735700 0.000005 -0.000001 65.704600 83.483600 -66.532100 8.984550 -0.406207 -0.000000 4.089120 -5.327540 -1.463770 16.377300 -0.000001 -0.000001 0.895766 -14.196000 1.753520 6.456720 -0.000001 -0.000000 -6.512740 -18.191900 8.396770 12.994200 -0.242716 4.980390 -90.372900 1.501920 -76.053100 5.348090 -0.000007 -0.000001 -46.648600 29.148700 -48.196400 24.328600 0.000019 0.000005 14.336600 10.399500 -54.767200 22.291600 -0.000001 0.000005 20.617200 5.332140 -0.845829 12.994500 -0.242716 -4.980390 88.384500 8.551640 -79.260700 -5.348130 -0.000001 -0.000004 -69.801500 22.174100 12.145300 -24.328900 0.000322 -0.000009 0.978779 9.719590 -5.786130 -22.291500 -0.000108 -0.000004 11.840700 5.289440 0.366403 -2.192480 -6.469440 -0.000000 -175.668000 -10.789600 6.006860 39.081100 -0.000007 -0.000012 -0.051528 0.063635 38.999100 40.985400 -0.000006 -0.000013 0.086714 21.039400 -67.823200 11.754300 -0.000000 0.000003 -0.072961 -0.371786 -31.983600 -2.192510 6.469440 -0.000001 -167.357000 40.026000 154.411000 -39.081100 -0.002282 -0.040193 -0.072161 0.145578 27.402500 -40.985400 0.000008 0.000006 25.949200 -13.162600 -52.743100 -11.754300 -0.000006 -0.000006 -0.025836 -0.141842 -21.862400
0.000000 0.000000 0.000000 0.000000 0.000000 -0.000000 135.449000 87.322200 148.594000 98.498200 -8.284800 9.911400 15.735700 0.000005 -0.000001 63.362000 83.642400 -64.042600 8.984550 -0.406207 -0.000000 3.581180 -5.668850 -1.183160 16.377300 -0.000001 -0.000001 1.380390 -14.058600 1.262670 6.456720 -0.000001 -0.000000 -6.417980 -17.859500 7.459770 12.994200 -0.242716 4.980390 -90.424100 1.643850 -75.531500 5.348090 -0.000007 -0.000001 -48.666300 29.553900 -44.278400 24.328600 0.000019 0.000005 14.811300 9.842710 -57.118000 22.291600 -0.000001 0.000005 21.259000 5.344590 -1.215530 12.994500 -0.242716 -4.980390 88.235600 8.599120 -78.359300 -5.348130 -0.000001 -0.000004 -68.257300 20.247900 11.927000 -24.328900 0.000322 -0.000009 0.819963 11.228200 -4.209640 -22.291500 -0.000108 -0.000004 11.916300 5.260600 1.149590 -2.192480 -6.469440 -0.000000 -172.369000 -12.917800 6.707470 39.081100 -0.000007 -0.000012 -0.034237 0.035495 43.968700 40.985400 -0.000006 -0.000013 -3.992950 26.942100 -61.952300 11.754300 -0.000000 0.000003 -0.134837 -0.523887 -38.644600 -2.192510 6.469440 -0.000001 -170.063000 36.850100 157.701000 -39.081100 -0.002282 -0.040193 -0.050273 0.084131 32.486700 -40.985400 0.000008 0.000006 24.706600 -18.092900 -61.763400 -11.754300 -0.000006 -0.000006 -0.008485 -0.091942 -20.317500
0.000000 0.000000 0.000000 0.000000 0.000000 -0.000000 133.285000 86.569800 152.037000 97.825800 -9.893030 11.106400 15.735700 0.000005 -0.000001 63.387100 83.569400 -63.384000 8.984550 -0.406207 -0.000000 3.748550 -5.753710 0.194564 16.377300 -0.000001 -0.000001 1.315730 -13.586100 0.930070 6.456720 -0.000001 -0.000000 -7.153050 -17.115200 6.525490 12.994200 -0.242716 4.980390 -90.623700 2.321260 -74.958100 5.348090 -0.000007 -0.000001 -51.141400 30.197600 -39.552200 24.328600 0.000019 0.000005 15.787200 10.080300 -58.239700 22.291600 -0.000001 0.000005 21.356700 5.343270 -1.176410 12.994500 -0.242716 -4.980390 88.074100 9.016320 -77.890000 -5.348130 -0.000001 -0.000004 -65.857400 18.380700 10.420400 -24.328900 0.000322 -0.000009 0.675779 11.000100 -3.542230 -22.291500 -0.000108 -0.000004 12.030200 5.241940 1.644780 -2.192480 -6.469440 -0.000000 -167.852000 -13.225600 5.700420 39.081100 -0.000007 -0.000012 0.056825 -0.047725 49.972300 40.985400 -0.000006 -0.000013 -12.625800 31.733800 -49.894700 11.754300 -0.000000 0.000003 -0.146356 -0.547505 -39.710000 -2.192510 6.469440 -0.000001 -170.716000 35.005100 160.554000 -39.081100 -0.002282 -0.040193 0.006456 -0.004233 36.822300 -40.985400 0.000008 0.000006 23.264500 -20.190000 -66.322000 -11.754300 -0.000006 -0.000006 -0.006627 -0.076425 -19.684000
0.000000 0.000000 0.000000 0.000000 0.000000 -0.000000 131.269000 86.176400 154.938000 98.266900 -12.436600 12.627600 15.735700 0.000005 -0.000001 64.877700 83.303900 -64.530500 8.984550 -0.406207 -0.000000 4.394320 -5.686490 0.912427 16.377300 -0.000001 -0.000001 0.774533 -12.909900 1.091140 6.456720 -0.000001 -0.000000 -7.682070 -15.890500 6.342720 12.994200 -0.242716 4.980390 -90.679600 2.535140 -74.988300 5.348090 -0.000007 -0.000001 -55.780700 30.314100 -32.954600 24.328600 0.000019 0.000005 17.014000 11.082100 -57.865500 22.291600 -0.000001 0.000005 21.520900 5.345540 -1.244120 12.994500 -0.242716 -4.980390 87.956800 9.565010 -77.882400 -5.348130 -0.000001 -0.000004 -63.399600 18.010800 7.044520 -24.328900 0.000322 -0.000009 0.551679 9.281380 -3.423670 -22.291500 -0.000108 -0.000004 11.646700 5.238770 1.727560 -2.192480 -6.469440 -0.000000 -167.292000 -9.439060 3.445750 39.081100 -0.000007 -0.000012 0.154853 -0.108498 54.982000 40.985400 -0.000006 -0.000013 -25.372000 28.623100 -35.549600 11.754300 -0.000000 0.000003 -0.065490 -0.349229 -31.020300 -2.192510 6.469440 -0.000001 -172.301000 34.453900 164.166000 -39.081100 -0.002282 -0.040193 0.054773 -0.063051 39.238200 -40.985400 0.000008 0.000006 22.305800 -19.533300 -69.938400 -11.754300 -0.000006 -0.000006 -0.005959 -0.070462 -19.440800
0.000000 0.000000 0.000000 0.000000 0.000000 -0.000000 129.397000 85.889200 157.106000 99.022400 -15.777800 13.658700 15.735700 0.000005 -0.000001 67.361000 83.142000 -66.894400 8.984550 -0.406207 -0.000000 4.931560 -5.280800 1.160170 16.377300 -0.000001 -0.000001 0.350062 -12.310200 1.770970 6.456720 -0.000001 -0.000000 -8.038310 -14.872100 6.882320 12.994200 -0.242716 4.980390 -90.513400 1.944320 -75.205900 5.348090 -0.000007 -0.000001 -60.191300 30.900700 -26.737600 24.328600 0.000019 0.000005 16.353000 12.116400 -54.419400 22.291600 -0.000001 0.000005 21.325900 5.355760 -1.551130 12.994500 -0.242716 -4.980390 87.848000 10.052100 -77.850400 -5.348130 -0.000001 -0.000004 -61.808000 18.194700 2.581730 -24.328900 0.000322 -0.000009 0.657173 8.027300 -4.704700 -22.291500 -0.000108 -0.000004 11.797600 5.248730 1.468030 -2.192480 -6.469440 -0.000000 -168.713000 -4.829110 -0.330655 39.081100 -0.000007 -0.000012 0.146257 -0.083964 60.139000 40.985400 -0.000006 -0.000013 -29.580500 23.729100 -28.190500 11.754300 -0.000000 0.000003 -0.005220 -0.063591 -19.164300 -2.192510 6.469440 -0.000001 -173.594000 34.019000 167.447000 -39.081100 -0.002282 -0.040193 0.113869 -0.131270 40.113200 -40.985400 0.000008 0.000006 21.990300 -17.605600 -73.127800 -11.754300 -0.000006 -0.000006 -0.005884 -0.069782 -19.413000
0.000000 0.000000 0.000000 0.000000 0.000000 -0.000000 127.363000 86.305500 158.997000 99.742600 -20.661500 13.915300 15.735700 0.000005 -0.000001 72.096900 83.321500 -71.554000 8.984550 -0.406207 -0.000000 4.974060 -4.111080 1.263580 16.377300 -0.000001 -0.000001 0.322187 -11.612500 2.541320 6.456720 -0.000001 -0.000000 -8.186700 -14.156200 7.811730 12.994200 -0.242716 4.980390 -90.417500 1.562880 -75.040800 5.348090 -0.000007 -0.000001 -61.686900 33.820600 -22.685600 24.328600 0.000019 0.000005 13.287400 12.626000 -47.206500 22.291600 -0.000001 0.000005 20.044900 5.359880 -1.678080 12.994500 -0.242716 -4.980390 87.794200 10.618700 -78.193700 -5.348130 -0.000001 -0.000004 -61.128400 18.581800 -1.788120 -24.328900 0.000322 -0.000009 0.968798 7.102620 -7.803030 -22.291500 -0.000108 -0.000004 12.817400 5.274490 0.781758 -2.192480 -6.469440 -0.000000 -170.216000 -2.674590 -3.678130 39.081100 -0.000007 -0.000012 0.048739 -0.022782 64.942200 40.985400 -0.000006 -0.000013 -19.482700 16.888000 -39.356300 11.754300 -0.000000 0.000003 -0.006988 -0.079572 -19.816100 -2.192510 6.469440 -0.000001 -174.157000 31.921500 171.215000 -39.081100 -0.002282 -0.040193 0.094923 -0.117522 37.945600 -40.985400 0.000008 0.000006 21.976100 -14.765800 -73.970200 -11.754300 -0.000006 -0.000006 -0.006348 -0.073961 -19.583500
0.000000 0.000000 0.000000 0.000000 0.000000 -0.000000 125.466000 86.963200 160.592000 101.520000 -27.468200 14.663000 15.735700 0.000005 -0.000001 79.960400 83.542800 -79.702700 8.984550 -0.406207 -0.000000 4.958800 -2.253190 0.612303 16.377300 -0.000001 -0.000001 0.513170 -10.359200 3.302840 6.456720 -0.000001 -0.000000 -8.011990 -13.646300 8.530640 12.994200 -0.242716 4.980390 -90.420200 1.498060 -74.330100 5.348090 -0.000007 -0.000001 -61.294100 38.543300 -20.078200 24.328600 0.000019 0.000005 11.008900 14.437000 -37.973700 22.291600 -0.000001 0.000005 15.158400 5.357860 -1.607980 12.994500 -0.242716 -4.980390 87.945900 11.026000 -79.378400 -5.348130 -0.000001 -0.000004 -61.508600 20.134400 -6.018550 -24.328900 0.000322 -0.000009 0.996820 4.730770 -11.943600 -22.291500 -0.000108 -0.000004 14.214900 5.327940 -0.717419 -2.192480 -6.469440 -0.000000 -172.274000 -2.908050 -6.568290 39.081100 -0.000007 -0.000012 -0.019156 0.008201 66.837400 40.985400 -0.000006 -0.000013 -8.860850 4.289920 -46.473300 11.754300 -0.000000 0.000003 -0.005185 -0.063252 -19.150500 -2.192510 6.469440 -0.000001 -175.527000 28.840500 174.996000 -39.081100 -0.002282 -0.040193 0.076781 -0.103836 35.289300 -40.985400 0.000008 0.000006 22.632800 -10.486400 -73.968300 -11.754300 -0.000006 -0.000006 -0.167147 -0.258603 -20.175200
0.000000 0.000000 0.000000 0.000000 0.000000 -0.000000 123.784000 87.681300 161.841000 103.673000 -35.020100 15.242700 15.735700 0.000005 -0.000001 88.388700 83.818100 -88.407500 8.984550 -0.406207 -0.000000 4.592850 -0.346524 -0.023644 16.377300 -0.000001 -0.000001 0.465728 -9.209870 3.864770 6.456720 -0.000001 -0.000000 -7.616490 -12.910700 8.661140 12.994200 -0.242716 4.980390 -90.574800 1.975670 -73.776600 5.348090 -0.000007 -0.000001 -61.925600 43.009700 -16.172400 24.328600 0.000019 0.000005 11.794100 21.066100 -30.171700 22.291600 -0.000001 0.000005 7.085030 5.365130 -1.861790 12.994500 -0.242716 -4.980390 88.265600 10.812800 -80.831400 -5.348130 -0.000001 -0.000004 -62.222500 23.726700 -10.403100 -24.328900 0.000322 -0.000009 0.552711 1.821790 -16.959100 -22.291500 -0.000108 -0.000004 15.192500 5.370530 -1.997440 -2.192480 -6.469440 -0.000000 -174.067000 -2.726240 -9.561060 39.081100 -0.000007 -0.000012 -0.057272 0.025789 65.762700 40.985400 -0.000006 -0.000013 -3.651370 -5.504320 -51.420900 11.754300 -0.000000 0.000003 -0.005438 -0.065647 -19.248100 -2.192510 6.469440 -0.000001 -176.853000 26.177100 177.267000 -39.081100 -0.002282 -0.040193 0.074902 -0.109284 33.234400 -40.985400 0.000008 0.000006 23.551700 -4.877710 -73.166900 -11.754300 -0.000006 -0.000006 -1.290430 -1.447210 -22.115700
0.000000 0.000000 0.000000 0.000000 0.000000 -0.000000 122.141000 88.394100 162.765000 105.876000 -42.899700 15.478600 15.735700 0.000005 -0.000001 96.103800 84.114300 -96.300200 8.984550 -0.406207 -0.000000 3.941550 1.256410 -0.435463 16.377300 -0.000001 -0.000001 0.068181 -8.178020 4.393590 6.456720 -0.000001 -0.000000 -7.364880 -11.989500 8.305540 12.994200 -0.242716 4.980390 -90.776600 2.571410 -73.189300 5.348090 -0.000007 -0.000001 -65.629000 45.416700 -9.556890 24.328600 0.000019 0.000005 13.275500 31.013600 -24.615100 22.291600 -0.000001 0.000005 0.803765 5.389160 -2.592340 12.994500 -0.242716 -4.980390 88.609000 10.094100 -82.112600 -5.348130 -0.000001 -0.000004 -62.410200 28.955600 -15.899700 -24.328900 0.000322 -0.000009 0.242337 0.609896 -21.792500 -22.291500 -0.000108 -0.000004 15.524200 5.403700 -3.057780 -2.192480 -6.469440 -0.000000 -174.767000 -1.643390 -12.678200 39.081100 -0.000007 -0.000012 -0.050099 0.026105 62.481900 40.985400 -0.000006 -0.000013 -1.925460 -5.530390 -55.882600 11.754300 -0.000000 0.000003 -0.005245 -0.063828 -19.174000 -2.192510 6.469440 -0.000001 -177.473000 23.516100 178.205000 -39.081100 -0.002282 -0.040193 0.068613 -0.106633 31.488100 -40.985400 0.000008 0.000006 24.734600 0.748972 -72.055600 -11.754300 -0.000006 -0.000006 -1.313460 -1.430450 -23.663900
